<svg xmlns="http://www.w3.org/2000/svg" viewBox="0 0 170 109.1"><path d="M141.2,49.5c5.2.7,10-1.3,12.5-2.7a23.7,23.7,0,0,0-5.6-13,50.8,50.8,0,0,1-11.6,6.6c3.7-4,4.7-9.2,4.9-12a23.8,23.8,0,0,0-17.7-2.1,50.6,50.6,0,0,1,.7,13.4c-1.8-5-6-8.2-8.4-9.8a23.8,23.8,0,0,0-9.2,13.6,50.2,50.2,0,0,1,12.3,5.8c-5.5-.8-10.4,1.5-12.8,2.9a23.7,23.7,0,0,0,5.9,12.8,50.6,50.6,0,0,1,11.7-6.7c-3.6,3.9-4.6,9.1-4.9,11.9a23.8,23.8,0,0,0,16.5,2.1,50.8,50.8,0,0,1-.6-13.3c1.9,5.1,6.1,8.4,8.5,9.9A23.8,23.8,0,0,0,153,55.2,51.1,51.1,0,0,1,141.2,49.5Z"/><path d="M18,10.4V0H0V4.6H13.3V20.9H7V47h6.4v62.1H18V88.2H42.9v7H54.5v-7h5.8v7h77.7v-7H170V10.4ZM130,78.9a29.6,29.6,0,1,1,29.6-29.6A29.6,29.6,0,0,1,130,78.9Z"/></svg>