<svg xmlns="http://www.w3.org/2000/svg" viewBox="0 0 169 112.7"><path d="M128.4,80.5a9.6,9.6,0,0,0,5.5-16.9A175.2,175.2,0,0,0,90.4,39c15,26.8,30.7,39,30.9,39.1h.1A9.6,9.6,0,0,0,128.4,80.5Z"/><circle cx="68.7" cy="56.3" r="9"/><path d="M133.9,63.6A156.5,156.5,0,0,0,113.3,50a44.9,44.9,0,0,1-1.4,19.2,84.8,84.8,0,0,0,9.3,9h.1a9.6,9.6,0,1,0,12.5-14.6Z"/><path d="M0,0V112.7H169V0ZM139.2,80.8a15.1,15.1,0,0,1-10.4,5.3h-1.2a15.1,15.1,0,0,1-9.8-3.6,81.5,81.5,0,0,1-8.1-7.5,45.1,45.1,0,1,1,1.9-32.5,163.1,163.1,0,0,1,25.8,16.7,15.2,15.2,0,0,1,1.7,21.5Z"/></svg>