<svg xmlns="http://www.w3.org/2000/svg" viewBox="0 0 50 50"><path d="M 18 4 L 18 6 L 7 6 C 5.346 6 4 7.346 4 9 L 4 43 C 4 44.654 5.346 46 7 46 L 43 46 C 44.654 46 46 44.654 46 43 L 46 9 C 46 7.346 44.654 6 43 6 L 39 6 L 39 4 L 26 4 L 26 6 L 24 6 L 24 4 L 18 4 z M 20 6 L 22 6 L 22 11 L 20 11 L 20 6 z M 28 6 L 37 6 L 37 11 L 28 11 L 28 6 z M 8 9 C 8.552 9 9 9.448 9 10 C 9 10.552 8.552 11 8 11 C 7.448 11 7 10.552 7 10 C 7 9.448 7.448 9 8 9 z M 42 9 C 42.552 9 43 9.448 43 10 C 43 10.552 42.552 11 42 11 C 41.448 11 41 10.552 41 10 C 41 9.448 41.448 9 42 9 z M 12 17 L 15 17 L 15 28 L 12 28 L 12 17 z M 17 17 L 20 17 L 20 28 L 17 28 L 17 17 z M 28 17 L 39 17 L 39 28 L 28 28 L 28 17 z M 31 20 L 31 25 L 36 25 L 36 20 L 31 20 z M 11 33 L 31 33 L 31 35 L 11 35 L 11 33 z M 37 34 C 38.103 34 39 34.897 39 36 C 39 37.103 38.103 38 37 38 C 35.897 38 35 37.103 35 36 C 35 34.897 35.897 34 37 34 z M 11 37 L 31 37 L 31 39 L 11 39 L 11 37 z M 8 41 C 8.552 41 9 41.448 9 42 C 9 42.552 8.552 43 8 43 C 7.448 43 7 42.552 7 42 C 7 41.448 7.448 41 8 41 z M 42 41 C 42.552 41 43 41.448 43 42 C 43 42.552 42.552 43 42 43 C 41.448 43 41 42.552 41 42 C 41 41.448 41.448 41 42 41 z"/></svg>